<?xml version="1.0" standalone="no"?>
<!DOCTYPE svg PUBLIC "-//W3C//DTD SVG 20010904//EN"
 "http://www.w3.org/TR/2001/REC-SVG-20010904/DTD/svg10.dtd">
<svg version="1.0" xmlns="http://www.w3.org/2000/svg"
 width="400.000000pt" height="400.000000pt" viewBox="0 0 400.000000 400.000000"
 preserveAspectRatio="xMidYMid meet">
<metadata>
Created by potrace 1.14, written by Peter Selinger 2001-2017
</metadata>
<g transform="translate(0.000000,400.000000) scale(0.100000,-0.100000)"
fill="#000000" stroke="none">
<path d="M0 2000 l0 -2000 2000 0 2000 0 0 2000 0 2000 -2000 0 -2000 0 0
-2000z m2504 1503 c12 -142 13 -139 -46 -173 -29 -16 -56 -30 -60 -30 -5 0 -8
31 -8 69 l0 70 -30 -10 -29 -11 6 -112 6 -113 -60 -20 -60 -21 -7 146 c-9 187
-12 182 150 239 65 23 122 42 125 42 3 1 9 -33 13 -76z m-345 -105 c1 -20 -3
-39 -8 -42 -5 -3 -71 -26 -146 -50 l-137 -44 7 26 c26 110 12 97 148 139 135
43 135 43 136 -29z m1780 -20 c44 -27 51 -36 51 -70 0 -19 -11 -37 -37 -60
-21 -18 -58 -53 -84 -78 -25 -25 -59 -56 -77 -69 -18 -12 -32 -29 -32 -37 0
-8 -8 -17 -17 -21 -10 -3 -34 -24 -54 -45 l-37 -40 -63 23 c-35 12 -70 27 -77
32 -6 5 -27 13 -45 17 l-32 8 29 1 c16 1 49 11 73 22 42 21 45 21 57 3 11 -15
18 -16 37 -7 15 7 18 12 9 12 -12 1 -13 3 -1 10 23 15 3 31 -24 21 -34 -13
-32 -6 15 47 22 26 40 56 40 69 0 21 -4 23 -32 19 -26 -4 -29 -3 -13 4 11 5
14 10 6 10 -8 1 -4 9 10 22 l24 20 -25 -12 c-14 -7 -38 -23 -53 -35 -29 -24
-53 -32 -42 -14 3 6 3 15 0 20 -9 14 -42 -5 -73 -41 -30 -36 -42 -37 -42 -2
l0 26 -27 -24 c-21 -19 -25 -20 -20 -6 4 10 7 33 7 51 l0 32 96 23 c52 13 98
20 101 17 4 -3 1 -6 -5 -6 -7 0 -12 -7 -12 -16 0 -11 5 -14 16 -10 9 3 20 6
25 6 14 0 11 30 -3 31 -13 1 79 28 96 29 5 0 3 -7 -4 -15 -16 -20 -10 -26 18
-18 24 6 30 29 10 35 -12 4 117 35 156 37 10 0 35 -9 55 -21z m-2118 -47 c23
-19 24 -25 31 -218 3 -109 7 -267 7 -351 l1 -154 -28 -28 c-20 -20 -62 -39
-142 -64 -62 -20 -115 -34 -118 -31 -9 8 -24 648 -15 655 10 10 105 41 110 36
2 -1 6 -125 10 -275 6 -269 6 -271 27 -265 12 3 25 10 29 14 13 12 -4 551 -17
556 -6 2 -58 -11 -115 -31 l-103 -35 6 40 c13 85 15 86 148 129 68 22 128 40
134 40 7 1 22 -8 35 -18z m229 -131 c0 -55 1 -100 3 -100 2 0 25 7 51 16 57
20 66 13 66 -53 l0 -41 -57 -20 -58 -19 4 -109 c2 -60 4 -110 5 -112 2 -1 29
7 61 18 l58 20 -7 -52 c-4 -28 -11 -59 -16 -67 -6 -13 -186 -81 -212 -81 -5 0
-12 208 -20 554 l-3 109 50 18 c78 27 75 31 75 -81z m-586 -42 c3 -46 8 -220
12 -387 l6 -303 -53 -54 c-29 -30 -57 -54 -61 -54 -4 0 -8 12 -8 26 0 21 -3
25 -17 19 -10 -4 -41 -10 -70 -12 -84 -8 -86 -2 -95 311 -5 144 -7 303 -6 355
l3 94 54 19 c30 10 55 17 57 15 1 -1 6 -150 11 -332 l8 -330 28 -3 28 -3 -5
183 c-4 101 -9 256 -12 345 l-5 161 48 15 c73 23 71 25 77 -65z m1031 22 c15
-17 19 -44 23 -187 5 -209 6 -208 -134 -253 -52 -16 -99 -30 -104 -30 -6 0
-19 9 -30 20 -17 17 -20 33 -20 103 l0 84 41 12 c23 7 47 15 55 18 11 4 14 -7
14 -51 0 -59 9 -68 44 -43 16 12 18 26 14 120 -2 58 -6 108 -9 111 -3 3 -39
-5 -79 -19 -40 -14 -77 -25 -82 -25 -4 0 -8 22 -8 48 l0 48 93 31 c111 38 157
41 182 13z m-1414 -89 l24 -19 9 -336 c9 -358 7 -380 -38 -409 -11 -8 -66 -29
-121 -47 -55 -18 -105 -35 -112 -37 -16 -6 -21 60 -28 382 l-7 281 57 18 c31
10 58 16 61 14 2 -2 6 -126 10 -275 l7 -271 29 10 29 10 -7 272 c-3 149 -10
275 -14 279 -4 5 -51 -5 -104 -22 -53 -17 -102 -31 -109 -31 -11 0 -11 11 2
59 l15 58 125 41 c70 23 131 41 137 42 7 0 22 -9 35 -19z m1509 -631 c0 -5 -5
-10 -11 -10 -5 0 -7 5 -4 10 3 6 8 10 11 10 2 0 4 -4 4 -10z m-630 -185 c-9
-11 -5 -14 21 -17 31 -3 30 -4 -42 -50 -65 -41 -76 -45 -90 -32 -8 8 -21 14
-28 14 -6 0 -14 7 -17 15 -4 8 -10 15 -15 15 -9 0 -849 -343 -875 -358 -20
-11 -21 -11 136 -37 103 -18 204 -60 196 -82 -3 -7 1 -13 10 -13 10 0 14 -6
10 -15 -3 -9 0 -15 10 -15 11 0 15 -6 11 -19 -3 -15 -1 -18 11 -14 12 5 14 1
10 -15 -4 -12 -2 -20 3 -16 11 6 89 -114 89 -138 0 -10 -10 -23 -22 -29 -13
-6 -20 -8 -16 -4 4 5 3 14 -3 22 -9 10 -15 10 -25 2 -11 -9 -14 -7 -14 7 0 16
-2 17 -10 4 -8 -13 -10 -13 -11 3 -1 9 -3 22 -4 27 -1 6 -3 14 -4 19 0 5 -7
16 -14 23 -7 7 -23 27 -36 43 -23 29 -23 29 -17 5 l7 -25 -18 25 c-58 81 -66
72 -12 -15 34 -55 67 -104 74 -110 12 -10 15 -17 15 -35 0 -6 9 -14 21 -18 18
-7 3 -20 -100 -90 -103 -71 -121 -87 -126 -115 -3 -18 -5 -133 -3 -257 l3
-225 76 95 c83 104 633 818 747 971 40 53 72 101 72 108 0 7 -9 26 -21 42
l-21 29 24 20 c12 11 26 19 31 20 4 0 7 7 7 15 0 8 6 12 13 10 6 -3 43 19 81
48 38 28 98 71 135 95 60 40 63 40 30 10 -43 -39 -104 -118 -92 -118 4 0 13 8
19 18 6 9 34 31 62 49 l50 31 -73 -90 c-55 -67 -77 -103 -85 -139 -10 -41 -77
-136 -394 -561 -615 -826 -732 -982 -760 -1007 -18 -17 -36 -24 -62 -23 -43 2
-118 43 -140 77 -19 29 -12 56 148 570 54 176 102 341 105 367 8 65 -10 104
-50 112 -18 3 -192 19 -387 36 -195 17 -357 36 -358 41 -2 5 -18 7 -35 4 -25
-4 -44 2 -87 28 -61 37 -80 70 -64 113 11 32 -51 11 864 285 388 116 757 227
821 247 91 29 129 36 173 34 46 -3 55 -6 46 -17z m1375 -197 c-7 -109 -17
-138 -59 -177 -21 -20 -26 -21 -26 -8 0 9 -7 17 -15 17 -12 0 -15 -14 -15 -67
0 -114 -8 -141 -42 -148 -16 -4 -31 -5 -34 -3 -6 7 18 442 25 449 3 4 20 10
36 13 l30 7 -3 -96 c-3 -82 -2 -95 12 -95 14 0 22 26 16 55 -1 5 1 40 5 77 7
69 11 74 59 77 17 1 18 -5 11 -101z m-1565 78 c0 -7 -18 -25 -40 -40 -44 -29
-55 -32 -44 -13 4 7 3 9 -2 4 -5 -5 -9 -14 -9 -19 0 -6 -6 -13 -12 -15 -7 -3
-13 0 -13 5 0 12 58 62 71 62 6 0 17 7 25 15 19 19 24 19 24 1z m43 -32 c-1
-5 5 -13 13 -17 8 -5 12 -12 9 -17 -3 -4 2 -11 11 -14 8 -3 13 -10 10 -15 -3
-5 1 -12 10 -15 8 -3 13 -10 10 -15 -3 -5 1 -12 10 -15 8 -3 13 -10 10 -15 -3
-5 1 -12 10 -15 22 -8 7 -25 -62 -71 -44 -30 -58 -34 -69 -25 -8 7 -13 16 -10
20 3 4 -2 11 -11 14 -8 3 -13 10 -10 15 3 5 -1 12 -10 15 -8 3 -13 10 -10 15
3 5 -1 12 -10 15 -9 4 -14 9 -11 13 4 3 -1 12 -11 19 -16 11 -15 13 11 23 15
6 27 16 27 23 0 9 -3 10 -8 2 -11 -17 -49 -26 -57 -14 -3 5 5 14 19 20 14 5
26 14 26 20 0 5 11 12 24 16 14 3 27 12 30 20 6 15 52 13 49 -2z m1327 -19 c0
-31 -3 -35 -35 -41 -19 -3 -33 -10 -30 -14 7 -11 -15 -374 -23 -381 -4 -4 -20
-9 -36 -13 l-28 -7 7 173 c4 95 11 183 16 196 8 21 7 22 -30 16 l-39 -6 7 33
c7 33 9 34 96 55 50 12 91 22 93 23 1 0 2 -15 2 -34z m-210 -49 c0 -31 -3 -35
-37 -44 -21 -5 -30 -10 -20 -11 16 -1 17 -11 12 -133 -4 -73 -8 -143 -11 -156
-4 -20 -2 -23 16 -17 18 6 20 2 20 -29 0 -37 -8 -42 -108 -62 -31 -6 -32 -6
-32 30 0 24 5 36 14 36 15 0 26 79 26 184 0 88 10 134 29 140 9 2 -1 2 -21 -1
-35 -5 -38 -3 -38 18 0 37 10 44 80 61 36 9 66 16 68 17 1 0 2 -14 2 -33z
m-210 -246 c-23 -124 -44 -228 -48 -232 -4 -4 -19 -10 -34 -13 -28 -7 -28 -6
-29 41 -1 27 -4 63 -8 79 -6 24 -9 15 -15 -45 -4 -41 -12 -81 -18 -87 -9 -11
-56 -19 -59 -10 -7 23 -45 424 -40 429 4 4 21 11 39 14 l32 7 1 -54 c0 -30 4
-72 8 -94 l9 -40 2 35 c1 19 7 64 14 99 10 57 14 66 37 72 25 6 27 4 33 -39 3
-24 6 -68 7 -96 1 -66 8 -46 23 62 l11 87 35 11 c19 7 36 9 38 5 1 -4 -16
-108 -38 -231z m-1279 121 c-59 -40 -100 -61 -95 -49 6 17 106 79 113 72 4 -4
-5 -14 -18 -23z m499 3 c0 -8 -6 -14 -14 -14 -8 0 -16 -3 -18 -7 -1 -5 -20
-21 -42 -37 -31 -23 -40 -26 -47 -15 -13 21 -11 29 9 29 9 0 23 9 30 20 7 11
21 20 31 20 10 0 22 7 25 16 7 18 26 10 26 -12z m-447 -20 c-14 -11 -14 -14
-3 -12 10 2 15 -5 14 -18 0 -16 5 -20 24 -18 22 2 23 1 7 -15 -15 -17 -14 -18
10 -15 25 2 26 1 10 -15 -15 -17 -14 -18 8 -16 17 2 24 -2 23 -14 0 -9 4 -15
10 -14 6 1 10 -8 10 -20 -1 -12 4 -22 11 -22 20 0 24 -12 8 -25 -12 -10 -15
-10 -15 0 0 10 -3 10 -15 0 -8 -7 -13 -16 -10 -20 3 -4 -7 -7 -21 -7 -15 0
-29 -4 -33 -9 -8 -12 -61 -14 -61 -3 0 5 13 9 29 9 17 0 33 5 36 10 4 7 -8 8
-34 4 -26 -4 -41 -3 -41 4 0 6 6 12 13 15 6 2 2 2 -10 0 -27 -4 -30 14 -5 34
15 13 15 13 -6 3 -23 -11 -42 -6 -42 11 0 5 6 9 14 9 8 0 17 4 20 8 3 5 -8 6
-25 4 -32 -5 -40 13 -10 23 11 3 25 13 33 22 9 12 2 11 -24 -5 -44 -27 -65
-11 -27 20 22 17 22 18 2 9 -27 -13 -43 -14 -43 -2 0 12 100 77 112 74 4 -2 8
1 8 6 0 5 9 7 20 4 19 -5 20 -6 3 -19z m1831 -76 c-4 -57 -9 -106 -13 -109 -3
-4 -18 -9 -33 -13 l-28 -6 0 73 c0 70 2 75 36 115 19 23 37 42 40 42 2 0 1
-46 -2 -102z m-1787 -194 c-3 -3 -12 -4 -19 -1 -8 3 -5 6 6 6 11 1 17 -2 13
-5z m-272 -83 c3 -5 1 -12 -5 -16 -5 -3 -10 1 -10 9 0 18 6 21 15 7z m5 -225
c0 -2 -7 -7 -16 -10 -8 -3 -12 -2 -9 4 6 10 25 14 25 6z m-20 -41 c0 -8 -4
-15 -10 -15 -5 0 -10 7 -10 15 0 8 5 15 10 15 6 0 10 -7 10 -15z m160 -15 c0
-5 -7 -10 -16 -10 -8 0 -12 5 -9 10 3 6 10 10 16 10 5 0 9 -4 9 -10z m-110
-10 c0 -5 -4 -10 -9 -10 -6 0 -13 5 -16 10 -3 6 1 10 9 10 9 0 16 -4 16 -10z
m154 -9 c3 -5 -1 -11 -9 -14 -9 -4 -12 -1 -8 9 6 16 10 17 17 5z m-184 -55 c0
-2 -7 -9 -15 -16 -13 -11 -14 -10 -9 4 5 14 24 23 24 12z m690 -20 c0 -2 -16
-47 -35 -100 -29 -81 -32 -96 -18 -96 8 0 21 8 28 17 11 15 15 13 33 -23 l20
-40 -44 -27 c-54 -32 -54 -32 -47 -6 5 17 2 20 -13 17 -13 -2 -29 -31 -55
-103 l-36 -100 -42 -3 c-22 -2 -41 -1 -41 2 0 4 64 179 165 454 4 10 85 19 85
8z m117 -10 c4 -3 -72 -204 -79 -211 -4 -4 -17 13 -29 38 l-22 44 28 73 27 72
37 -7 c20 -4 37 -8 38 -9z m-769 -21 c1 -14 -3 -25 -8 -25 -8 0 -8 23 -1 48 3
9 7 -2 9 -23z m1043 9 l36 -6 -66 -179 c-36 -98 -68 -179 -71 -179 -4 0 -16
17 -28 39 l-22 38 20 59 c13 38 16 54 7 44 -40 -45 -117 -138 -117 -143 0 -3
15 -7 34 -9 27 -3 37 0 44 16 8 18 10 16 30 -16 12 -19 22 -38 22 -40 0 -6
-77 -58 -85 -58 -3 0 -5 6 -5 14 0 19 -86 32 -106 15 -8 -6 -38 -41 -67 -76
-50 -63 -53 -65 -90 -60 -21 3 -41 8 -45 11 -3 4 10 22 28 41 l34 35 -37 0
c-20 0 -37 3 -37 8 0 4 12 40 26 79 24 66 31 76 76 104 28 16 51 29 53 27 1
-2 -13 -43 -31 -92 -18 -50 -32 -91 -31 -93 2 -1 84 94 182 212 99 118 187
214 195 215 8 0 31 -3 51 -6z m241 -20 c38 -11 31 -36 -112 -416 -19 -51 -25
-58 -48 -58 -54 0 -53 6 20 208 39 106 68 195 65 198 -3 4 -35 9 -71 11 -36 3
-66 8 -66 10 0 3 10 18 21 35 21 29 21 29 98 23 42 -4 83 -9 93 -11z m212 -10
c30 -4 50 -13 56 -24 12 -22 -131 -418 -157 -437 -18 -14 -131 -16 -169 -5
-21 7 -20 13 49 200 l70 192 39 0 c21 0 38 -4 38 -9 0 -5 -25 -78 -56 -161
-31 -83 -53 -154 -50 -157 17 -17 38 21 89 160 31 85 57 160 57 166 0 7 -25
11 -70 11 -75 0 -81 6 -52 45 19 26 62 31 156 19z m-1459 -23 c-3 -6 -11 -11
-16 -11 -5 0 -4 6 3 14 14 16 24 13 13 -3z m1756 1 c13 -6 12 -14 -9 -69 -21
-57 -27 -63 -58 -69 -19 -3 -37 -4 -40 -1 -3 3 2 21 10 41 14 33 14 38 0 43
-20 7 -20 7 -48 -68 -20 -54 -28 -65 -52 -70 -22 -5 -16 -7 24 -8 64 -1 92
-14 92 -43 0 -37 -61 -192 -83 -211 -18 -16 -32 -18 -87 -12 -83 8 -93 20 -72
85 15 49 17 50 55 50 41 0 42 -3 22 -52 -5 -14 -2 -18 13 -18 15 0 25 15 44
68 l25 67 -49 6 c-27 4 -52 10 -55 13 -4 3 0 18 7 33 7 16 14 34 16 40 5 25
57 158 67 171 10 13 149 16 178 4z m-617 -45 c-1 -4 -33 -93 -70 -197 l-69
-190 -37 0 c-25 0 -38 5 -38 13 0 13 126 363 137 380 6 10 78 5 77 -6z m-256
-340 c-11 -34 -14 -37 -50 -37 -21 0 -38 4 -38 9 0 8 92 73 97 67 1 -1 -3 -19
-9 -39z"/>
<path d="M3455 3284 c-20 -20 -17 -24 17 -17 17 3 25 10 21 19 -7 18 -18 18
-38 -2z"/>
<path d="M3829 3200 c-24 -19 -24 -19 -3 -20 24 0 50 25 36 34 -6 3 -21 -3
-33 -14z"/>
<path d="M3681 3171 c-9 -6 -10 -14 -4 -26 9 -15 11 -14 27 9 17 27 6 35 -23
17z"/>
<path d="M3745 3120 c-10 -11 -16 -22 -14 -25 7 -6 49 24 49 36 0 15 -16 10
-35 -11z"/>
<path d="M3665 3041 c-25 -13 -27 -16 -11 -19 10 -2 25 3 34 12 22 22 12 25
-23 7z"/>
<path d="M1633 2202 c-62 -25 -112 -47 -110 -48 6 -7 248 73 248 81 0 19 -27
13 -138 -33z"/>
<path d="M1649 1353 c-498 -667 -458 -613 -437 -593 28 27 881 1170 873 1170
-3 0 -199 -260 -436 -577z"/>
<path d="M1999 1903 c-13 -16 -12 -17 4 -4 9 7 17 15 17 17 0 8 -8 3 -21 -13z"/>
<path d="M1874 1738 c-131 -175 -133 -178 -112 -158 21 21 230 300 224 300 -3
0 -54 -64 -112 -142z"/>
<path d="M1108 1793 c7 -3 16 -2 19 1 4 3 -2 6 -13 5 -11 0 -14 -3 -6 -6z"/>
<path d="M1123 1754 c-6 -15 13 -34 34 -35 5 0 15 -7 24 -15 15 -13 17 -13 23
1 3 9 2 13 -4 10 -6 -3 -13 2 -17 12 -7 19 -32 42 -46 43 -4 0 -10 -7 -14 -16z"/>
<path d="M1729 1543 c-13 -16 -12 -17 4 -4 9 7 17 15 17 17 0 8 -8 3 -21 -13z"/>
<path d="M1699 1503 c-13 -16 -12 -17 4 -4 9 7 17 15 17 17 0 8 -8 3 -21 -13z"/>
<path d="M1669 1463 c-13 -16 -12 -17 4 -4 9 7 17 15 17 17 0 8 -8 3 -21 -13z"/>
<path d="M1639 1423 c-13 -16 -12 -17 4 -4 16 13 21 21 13 21 -2 0 -10 -8 -17
-17z"/>
<path d="M1609 1383 c-13 -16 -12 -17 4 -4 16 13 21 21 13 21 -2 0 -10 -8 -17
-17z"/>
<path d="M1579 1343 c-13 -16 -12 -17 4 -4 9 7 17 15 17 17 0 8 -8 3 -21 -13z"/>
<path d="M1549 1303 c-13 -16 -12 -17 4 -4 9 7 17 15 17 17 0 8 -8 3 -21 -13z"/>
<path d="M1046 1284 c-7 -19 -8 -59 -1 -52 11 10 23 68 15 68 -4 0 -11 -7 -14
-16z"/>
<path d="M1519 1263 c-13 -16 -12 -17 4 -4 16 13 21 21 13 21 -2 0 -10 -8 -17
-17z"/>
<path d="M1489 1223 c-13 -16 -12 -17 4 -4 16 13 21 21 13 21 -2 0 -10 -8 -17
-17z"/>
<path d="M1459 1183 c-13 -16 -12 -17 4 -4 16 13 21 21 13 21 -2 0 -10 -8 -17
-17z"/>
<path d="M1429 1143 c-13 -16 -12 -17 4 -4 9 7 17 15 17 17 0 8 -8 3 -21 -13z"/>
<path d="M1399 1103 c-13 -16 -12 -17 4 -4 16 13 21 21 13 21 -2 0 -10 -8 -17
-17z"/>
<path d="M1369 1063 c-13 -16 -12 -17 4 -4 9 7 17 15 17 17 0 8 -8 3 -21 -13z"/>
<path d="M1339 1023 c-13 -16 -12 -17 4 -4 16 13 21 21 13 21 -2 0 -10 -8 -17
-17z"/>
<path d="M1309 983 c-13 -16 -12 -17 4 -4 16 13 21 21 13 21 -2 0 -10 -8 -17
-17z"/>
<path d="M1279 943 c-13 -16 -12 -17 4 -4 16 13 21 21 13 21 -2 0 -10 -8 -17
-17z"/>
<path d="M1249 903 c-13 -16 -12 -17 4 -4 9 7 17 15 17 17 0 8 -8 3 -21 -13z"/>
<path d="M1219 863 c-13 -16 -12 -17 4 -4 9 7 17 15 17 17 0 8 -8 3 -21 -13z"/>
<path d="M1189 823 c-13 -16 -12 -17 4 -4 16 13 21 21 13 21 -2 0 -10 -8 -17
-17z"/>
<path d="M1159 783 c-13 -16 -12 -17 4 -4 9 7 17 15 17 17 0 8 -8 3 -21 -13z"/>
<path d="M1179 723 c-13 -16 -12 -17 4 -4 9 7 17 15 17 17 0 8 -8 3 -21 -13z"/>
<path d="M1149 683 c-13 -16 -12 -17 4 -4 9 7 17 15 17 17 0 8 -8 3 -21 -13z"/>
<path d="M1119 643 c-13 -16 -12 -17 4 -4 9 7 17 15 17 17 0 8 -8 3 -21 -13z"/>
<path d="M1089 603 c-13 -16 -12 -17 4 -4 16 13 21 21 13 21 -2 0 -10 -8 -17
-17z"/>
<path d="M1031 525 c-22 -30 -41 -57 -41 -61 0 -4 8 4 18 17 56 73 74 99 69
99 -2 0 -23 -25 -46 -55z"/>
<path d="M3285 1990 c10 -11 23 -20 28 -20 6 0 2 9 -8 20 -10 11 -23 20 -28
20 -6 0 -2 -9 8 -20z"/>
<path d="M3038 2043 c7 -3 16 -2 19 1 4 3 -2 6 -13 5 -11 0 -14 -3 -6 -6z"/>
<path d="M1575 1730 c-3 -5 -1 -10 4 -10 6 0 11 5 11 10 0 6 -2 10 -4 10 -3 0
-8 -4 -11 -10z"/>
</g>
</svg>
